{"asset":{"version":"2.0","generator":"Unity 6000.0.32f1 glTFast 6.10.2"},"nodes":[{"name":"Bip L Toe0","translation":[0.100565165,0.08756276,0],"rotation":[1.54543116E-08,1.54543116E-08,0.7071068,0.7071068]},{"name":"Bip L Foot","children":[0],"translation":[0.328683048,-2.38418574E-09,-4.76837148E-09],"rotation":[0.0001205643,0.006931785,0.05051538,0.998699248]},{"name":"Bip L Calf","children":[1],"translation":[0.33612445,-2.38418574E-09,4.76837148E-09],"rotation":[-5.12092382E-11,1.40089051E-09,-0.0465858541,0.9989143]},{"name":"Bip L Thigh","children":[2],"translation":[-7.62939436E-08,1.168251E-07,0.06076733],"rotation":[0.003935301,-0.999968231,-0.0004426606,-0.00691933371]},{"name":"Bip R Toe0","translation":[0.100565165,0.08756277,0],"rotation":[-1.545431E-08,-1.545431E-08,0.7071068,0.7071068]},{"name":"Bip R Foot","children":[4],"translation":[0.328683048,2.980232E-09,0],"rotation":[-0.0001205687,-0.00693169748,0.0505153835,0.998699248]},{"name":"Bip R Calf","children":[5],"translation":[0.33612448,0,-4.76837148E-09],"rotation":[-2.862846E-11,-1.8633346E-09,-0.0465858579,0.9989143]},{"name":"Bip R Thigh","children":[6],"translation":[7.62939436E-08,-5.00679E-08,-0.06076733],"rotation":[0.0039352905,-0.999968231,0.000444053236,0.00691786548]},{"name":"Bip L ForeTwist","rotation":[0.000199079775,1.15879691E-13,5.820766E-10,1]},{"name":"Bip L Finger02","translation":[0.030810222,3.81469718E-08,-7.62939436E-08],"rotation":[-1.5414249E-10,7.448986E-09,0.0206886549,0.99978596]},{"name":"Bip L Finger01","children":[9],"translation":[0.033820495,0,7.62939436E-08],"rotation":[1.47438293E-08,7.757271E-09,0.0206886549,0.99978596]},{"name":"Bip L Finger0","children":[10],"translation":[0.04231861,0.00601623533,-0.01788906],"rotation":[0.420542955,0.42098853,-0.18216458,0.78276974]},{"name":"Bip L Finger12","translation":[0.0236387253,0,0],"rotation":[-7.13513071E-09,-1.87495512E-08,0.0168785788,0.999857545]},{"name":"Bip L Finger11","children":[12],"translation":[0.038863983,0,9.536743E-09],"rotation":[7.45038831E-09,5.34879224E-11,0.00717902742,0.999974251]},{"name":"Bip L Finger1","children":[13],"translation":[0.08722111,-0.00251541124,-0.0271944478],"rotation":[0.0347558931,0.142423615,0.04656742,0.988098741]},{"name":"Bip L Finger22","translation":[0.0301309582,1.52587887E-07,9.536743E-09],"rotation":[-5.58792923E-09,7.82058446E-12,-0.00139954826,0.999999046]},{"name":"Bip L Finger21","children":[15],"translation":[0.04228306,0,0],"rotation":[-2.918926E-09,1.65999259E-09,0.07085656,0.997486532]},{"name":"Bip L Finger2","children":[16],"translation":[0.08931339,-0.00517776469,-0.00908794347],"rotation":[-0.000398093252,0.0182523988,-7.27859E-06,0.999833345]},{"name":"Bip L Finger32","translation":[0.0258265678,0,-5.96046434E-10],"rotation":[2.2083807E-10,7.02375658E-10,0.0171204116,0.999853432]},{"name":"Bip L Finger31","children":[18],"translation":[0.0414768979,0,0],"rotation":[6.823674E-10,4.889847E-10,0.0337714329,0.9994296]},{"name":"Bip L Finger3","children":[19],"translation":[0.0894289,-0.00246528629,0.0100578349],"rotation":[-0.05274016,-0.06499845,0.00735369558,0.996463537]},{"name":"Bip L Finger42","translation":[0.0215220265,0,4.76837148E-09],"rotation":[7.09570458E-11,8.381604E-09,-0.008465504,0.9999642]},{"name":"Bip L Finger41","children":[21],"translation":[0.02480091,0,0],"rotation":[-3.52974761E-09,-7.545186E-09,0.0260753036,0.99966]},{"name":"Bip L Finger4","children":[22],"translation":[0.08638233,-0.00184631348,0.0260951854],"rotation":[-0.09736267,-0.14013803,0.0189440977,0.9851513]},{"name":"Bip L Hand","children":[11,14,17,20,23],"translation":[0.19207488,-4.76837148E-09,0],"rotation":[-0.7068252,-4.11426448E-10,4.117542E-10,0.7073883]},{"name":"Bip L Forearm","children":[8,24],"translation":[0.186163053,0,7.62939436E-08],"rotation":[9.27721733E-10,-8.181686E-11,-0.08785019,0.9961337]},{"name":"Bip LUpArmTwist1","translation":[0.09308151,-1.90734859E-08,0],"rotation":[-0.0359976552,3.00512148E-08,-6.37293862E-09,0.9993519]},{"name":"Bip LUpArmTwist","children":[26],"rotation":[0.07194864,4.4587626E-08,-3.21635474E-09,0.99740833]},{"name":"Bip L UpperArm","children":[25,27],"translation":[0.0895319954,-2.38418574E-09,-7.62939436E-08],"rotation":[0.0461825952,0.241595685,0.0194194857,0.9690829]},{"name":"Bip L Clavicle","children":[28],"translation":[0.09928123,-0.04496251,0.026121771],"rotation":[-0.651945,0.00026063167,-0.758266151,-0.0003010041]},{"name":"Cap_Root","translation":[0.2602034,0.0112717245,1.52587887E-07],"rotation":[-0.50000006,-0.49999994,-0.499999434,0.5000006]},{"name":"Hair_Root","translation":[0.127658531,0.0432727523,-1.46031285E-08],"rotation":[-0.499999672,-0.500000358,-0.499999642,0.5000004]},{"name":"Bip Head","children":[30,31],"translation":[0.0476304628,-0.003582592,7.567432E-09],"rotation":[-1.47833162E-13,2.48133858E-07,-0.08946342,0.9959901]},{"name":"Bip Neck","children":[32],"translation":[0.145837784,-0.0365921035,7.432163E-11],"rotation":[-6.044095E-14,-2.47034023E-07,0.0890661851,0.996025741]},{"name":"Bip R ForeTwist","rotation":[-0.000199045739,5.79299358E-13,-2.910383E-09,1]},{"name":"Bip R Finger02","translation":[0.03081026,7.62939436E-08,7.62939436E-08],"rotation":[3.08284731E-10,-1.48979709E-08,0.02068864,0.99978596]},{"name":"Bip R Finger01","children":[35],"translation":[0.0338204578,-1.52587887E-07,0],"rotation":[-3.08284759E-10,1.48979717E-08,0.02068864,0.99978596]},{"name":"Bip R Finger0","children":[36],"translation":[0.04231865,0.0060163117,0.01788906],"rotation":[-0.420542955,-0.42098853,-0.182164565,0.78276974]},{"name":"Bip R Finger12","translation":[0.0236386862,7.62939436E-08,-1.90734859E-08],"rotation":[1.11114007E-08,3.91339272E-09,0.0168785956,0.999857545]},{"name":"Bip R Finger11","children":[38],"translation":[0.0388639458,0,-1.90734859E-08],"rotation":[-7.503877E-09,7.396901E-09,0.007179058,0.999974251]},{"name":"Bip R Finger1","children":[39],"translation":[0.0872211456,-0.002515335,0.0271944478],"rotation":[-0.0347558931,-0.1424236,0.0465674475,0.988098741]},{"name":"Bip R Finger22","translation":[0.0301309954,0,-9.536743E-09],"rotation":[-1.86785676E-09,-3.72268E-09,-0.00139950356,0.999999046]},{"name":"Bip R Finger21","children":[41],"translation":[0.04228298,0,9.536743E-09],"rotation":[5.639881E-09,-5.330398E-10,0.07085655,0.997486532]},{"name":"Bip R Finger2","children":[42],"translation":[0.08931339,-0.00517768832,0.00908794347],"rotation":[0.000398092263,-0.0182523988,-7.278607E-06,0.999833345]},{"name":"Bip R Finger32","translation":[0.0258266069,0,0],"rotation":[1.38880685E-09,4.8951E-10,0.0171203837,0.999853432]},{"name":"Bip R Finger31","children":[44],"translation":[0.0414768979,0,0],"rotation":[7.0595646E-10,-2.09108744E-10,0.0337714329,0.9994296]},{"name":"Bip R Finger3","children":[45],"translation":[0.0894289,-0.00246521,-0.0100578349],"rotation":[0.0527401678,0.06499845,0.007353709,0.996463537]},{"name":"Bip R Finger42","translation":[0.021522101,0,-4.76837148E-09],"rotation":[-3.886781E-09,-1.90598914E-08,-0.008465518,0.9999642]},{"name":"Bip R Finger41","children":[47],"translation":[0.0248009861,0,0],"rotation":[2.47731946E-09,1.217593E-08,0.026075257,0.99966]},{"name":"Bip R Finger4","children":[48],"translation":[0.08638233,-0.00184623711,-0.02609519],"rotation":[0.0973626748,0.140138045,0.0189440623,0.9851513]},{"name":"Bip R Hand","children":[37,40,43,46,49],"translation":[0.192074925,-4.76837148E-09,7.62939436E-08],"rotation":[0.7068252,-2.057132E-09,-2.05877071E-09,0.7073882]},{"name":"Bip R Forearm","children":[34,50],"translation":[0.186163053,0,0],"rotation":[1.49417728E-10,1.494582E-08,-0.08785019,0.9961337]},{"name":"Bip RUpArmTwist1","translation":[0.09308151,0,-7.62939436E-08],"rotation":[0.03599766,-1.4891504E-08,5.364069E-10,0.9993519]},{"name":"Bip RUpArmTwist","children":[52],"rotation":[-0.07194864,-1.48625423E-08,-1.07211828E-09,0.99740833]},{"name":"Bip R UpperArm","children":[51,53],"translation":[0.08953198,2.38418574E-09,7.62939436E-08],"rotation":[-0.0461825952,-0.241595685,0.0194194876,0.9690829]},{"name":"Bip R Clavicle","children":[54],"translation":[0.09928123,-0.0449623577,-0.0261220187],"rotation":[0.651945,-0.00025852854,-0.758266151,-0.000302812317]},{"name":"Bip Spine2","children":[29,33,55],"translation":[0.110423811,-9.23013649E-05,-2.56004551E-10],"rotation":[-3.01176727E-14,0,0,1]},{"name":"Bip Spine1","children":[56],"translation":[0.110423811,-8.79275758E-05,-2.43876447E-10],"rotation":[-3.01176727E-14,0,0,1]},{"name":"Bip Spine","children":[57],"translation":[0.05782051,-0.0163139775,1.25054143E-07],"rotation":[-2.080476E-06,-6.93676E-07,0.000398159,0.99999994]},{"name":"Bip Pelvis","children":[3,7,58],"rotation":[-0.5,-0.5,-0.4999993,0.5000007]},{"name":"Bip","children":[59],"translation":[0,0.7643402,0.03656],"rotation":[-0.500000358,-0.499999642,-0.499999642,0.500000358]},{"name":"Base_Body","mesh":0,"skin":0},{"name":"MC_Basic_E002_A_Face","mesh":1,"skin":1},{"name":"BaseBody","children":[60,61,62]}],"buffers":[{"uri":"BaseBody.bin","byteLength":582256}],"bufferViews":[{"buffer":0,"byteLength":3712},{"buffer":0,"byteLength":64,"byteOffset":3712},{"buffer":0,"byteLength":35808,"byteOffset":3776,"target":34963},{"buffer":0,"byteLength":36300,"byteOffset":39584,"target":34963},{"buffer":0,"byteLength":172040,"byteOffset":75884,"byteStride":40,"target":34962},{"buffer":0,"byteLength":34408,"byteOffset":247924,"byteStride":8,"target":34962},{"buffer":0,"byteLength":17204,"byteOffset":282332,"byteStride":4,"target":34962},{"buffer":0,"byteLength":141360,"byteOffset":299536,"byteStride":40,"target":34962},{"buffer":0,"byteLength":28272,"byteOffset":440896,"byteStride":8,"target":34962},{"buffer":0,"byteLength":113088,"byteOffset":469168,"byteStride":32,"target":34962}],"accessors":[{"bufferView":7,"componentType":5126,"count":3534,"type":"VEC3","max":[0.559299946,0.07049999,1.2951],"min":[-0.559299946,-0.161299974,0.0012999773]},{"bufferView":7,"componentType":5126,"count":3534,"type":"VEC3","byteOffset":12},{"bufferView":7,"componentType":5126,"count":3534,"type":"VEC4","byteOffset":24},{"bufferView":8,"componentType":5126,"count":3534,"type":"VEC2"},{"bufferView":9,"componentType":5126,"count":3534,"type":"VEC4"},{"bufferView":9,"componentType":5123,"count":3534,"type":"VEC4","byteOffset":16},{"bufferView":0,"componentType":5126,"count":58,"type":"MAT4"},{"bufferView":4,"componentType":5126,"count":4301,"type":"VEC3","max":[0.115675688,0.109229475,1.479259],"min":[-0.115675688,-0.132584661,1.22486925]},{"bufferView":4,"componentType":5126,"count":4301,"type":"VEC3","byteOffset":12},{"bufferView":4,"componentType":5126,"count":4301,"type":"VEC4","byteOffset":24},{"bufferView":5,"componentType":5126,"count":4301,"type":"VEC2"},{"bufferView":6,"componentType":5123,"count":4301,"type":"SCALAR"},{"bufferView":1,"componentType":5126,"count":1,"type":"MAT4"},{"bufferView":2,"componentType":5123,"count":17904,"type":"SCALAR"},{"bufferView":3,"componentType":5123,"count":18150,"type":"SCALAR"}],"images":[{"name":"MC_Body_A_D01.jpg","uri":"MC_Body_A_D01.jpg","mimeType":"image/jpeg"},{"name":"MC_Face_A_D01.jpg","uri":"MC_Face_A_D01.jpg","mimeType":"image/jpeg"}],"materials":[{"name":"MC_Body_A_D01","pbrMetallicRoughness":{"metallicFactor":0,"roughnessFactor":0.8585787,"baseColorTexture":{"index":0}}},{"name":"MC_Face_A_D01","pbrMetallicRoughness":{"metallicFactor":0,"roughnessFactor":0.8585787,"baseColorTexture":{"index":1}}}],"meshes":[{"name":"Base_Body","primitives":[{"attributes":{"POSITION":0,"NORMAL":1,"TANGENT":2,"TEXCOORD_0":3,"JOINTS_0":5,"WEIGHTS_0":4},"indices":13,"material":0}]},{"name":"MC_Basic_E002_A_Face","primitives":[{"attributes":{"POSITION":7,"NORMAL":8,"TANGENT":9,"TEXCOORD_0":10,"JOINTS_0":11},"indices":14,"material":1}]}],"scene":0,"scenes":[{"name":"BaseBody","nodes":[63]}],"skins":[{"inverseBindMatrices":6,"joints":[59,3,58,57,56,33,32,29,27,2,1,0,26,28,25,8,24,11,10,9,14,13,12,17,16,15,20,19,18,23,22,21,7,55,53,6,5,4,52,54,51,34,50,37,36,35,40,39,38,43,42,41,46,45,44,49,48,47]},{"inverseBindMatrices":12,"joints":[32]}],"textures":[{"source":0},{"source":1}]}